<?xml version="1.0" encoding="UTF-8" standalone="no"?>
<!-- Created with Inkscape (http://www.inkscape.org/) -->

<svg
   xmlns:dc="http://purl.org/dc/elements/1.1/"
   xmlns:cc="http://creativecommons.org/ns#"
   xmlns:rdf="http://www.w3.org/1999/02/22-rdf-syntax-ns#"
   xmlns:svg="http://www.w3.org/2000/svg"
   xmlns="http://www.w3.org/2000/svg"
   xmlns:sodipodi="http://sodipodi.sourceforge.net/DTD/sodipodi-0.dtd"
   xmlns:inkscape="http://www.inkscape.org/namespaces/inkscape"
   width="441.41452"
   height="236.84991"
   viewBox="0 0 116.79092 62.666541"
   version="1.1"
   id="svg70606"
   inkscape:version="0.92.3 (2405546, 2018-03-11)"
   sodipodi:docname="straight_shadow_min.svg">
  <defs
     id="defs70600">
    <filter
       style="color-interpolation-filters:sRGB"
       inkscape:label="Drop Shadow"
       id="filter11216">
      <feFlood
         flood-opacity="0.498039"
         flood-color="rgb(0,0,0)"
         result="flood"
         id="feFlood11206" />
      <feComposite
         in="flood"
         in2="SourceGraphic"
         operator="in"
         result="composite1"
         id="feComposite11208" />
      <feGaussianBlur
         in="composite1"
         stdDeviation="3"
         result="blur"
         id="feGaussianBlur11210" />
      <feOffset
         dx="6"
         dy="6"
         result="offset"
         id="feOffset11212" />
      <feComposite
         in="SourceGraphic"
         in2="offset"
         operator="over"
         result="composite2"
         id="feComposite11214" />
    </filter>
  </defs>
  <sodipodi:namedview
     id="base"
     pagecolor="#ffffff"
     bordercolor="#666666"
     borderopacity="1.0"
     inkscape:pageopacity="0.0"
     inkscape:pageshadow="2"
     inkscape:zoom="1.4"
     inkscape:cx="148.13285"
     inkscape:cy="110.42807"
     inkscape:document-units="mm"
     inkscape:current-layer="layer1"
     showgrid="false"
     units="px"
     fit-margin-top="-22"
     fit-margin-left="-35"
     fit-margin-right="-35"
     fit-margin-bottom="-16"
     inkscape:window-width="1391"
     inkscape:window-height="838"
     inkscape:window-x="49"
     inkscape:window-y="25"
     inkscape:window-maximized="1" />
  <metadata
     id="metadata70603">
    <rdf:RDF>
      <cc:Work
         rdf:about="">
        <dc:format>image/svg+xml</dc:format>
        <dc:type
           rdf:resource="http://purl.org/dc/dcmitype/StillImage" />
        <dc:title></dc:title>
      </cc:Work>
    </rdf:RDF>
  </metadata>
  <g
     inkscape:label="Layer 1"
     inkscape:groupmode="layer"
     id="layer1"
     transform="translate(-41.39015,-20.337659)">
    <g
       transform="matrix(0.26458333,0,0,0.26458333,392.94401,176.75842)"
       id="g87680"
       style="filter:url(#filter11216)">
      <g
         id="g87346" class="card"
         style="fill:#ff5555"
         transform="matrix(0.28867587,-0.16666709,0.16666709,0.28867587,-1934.6836,530.67322)">
        <rect
           width="359"
           height="539"
           rx="29.944"
           x="3150.5"
           y="-1797.14"
           id="rect14690"
           style="fill:#ffffff;stroke:#000000" />
        <path
           d="m 3180,-1700.14 c 0,0 0.682,-4.182 2,-5.5 1.318,-1.318 3.637,-2 5.5,-2 1.863,0 4.182,0.682 5.5,2 1.318,1.318 2,3.637 2,5.5 0,1.863 -1,4.5 -2,5.5 -1,1 -2,1.5 -3,2.5 -1,1 -1.5,1 -2.5,2 -1,1 -1.5,1.5 -2.5,2.5 -1,1 -2.5,3 -3.5,5 -1,2 -1.5,5 -1.5,5 0,0 -0.5,-3 -1.5,-5 -1,-2 -2.5,-4 -3.5,-5 -1,-1 -1.5,-1.5 -2.5,-2.5 -1,-1 -1.5,-1 -2.5,-2 -1,-1 -2,-1.5 -3,-2.5 -1,-1 -2,-3.637 -2,-5.5 0,-1.863 0.682,-4.182 2,-5.5 1.318,-1.318 3.637,-2 5.5,-2 1.863,0 4.182,0.682 5.5,2 1.318,1.318 2,5.5 2,5.5"
           id="path14694"
           inkscape:connector-curvature="0" />
        <path
           d="m 3480,-1355.14 c 0,0 0.682,4.182 2,5.5 1.318,1.318 3.637,2 5.5,2 1.863,0 4.182,-0.682 5.5,-2 1.318,-1.318 2,-3.637 2,-5.5 0,-1.863 -1,-4.5 -2,-5.5 -1,-1 -2,-1.5 -3,-2.5 -1,-1 -1.5,-1 -2.5,-2 -1,-1 -1.5,-1.5 -2.5,-2.5 -1,-1 -2.5,-3 -3.5,-5 -1,-2 -1.5,-5 -1.5,-5 0,0 -0.5,3 -1.5,5 -1,2 -2.5,4 -3.5,5 -1,1 -1.5,1.5 -2.5,2.5 -1,1 -1.5,1 -2.5,2 -1,1 -2,1.5 -3,2.5 -1,1 -2,3.637 -2,5.5 0,1.863 0.682,4.182 2,5.5 1.318,1.318 3.637,2 5.5,2 1.863,0 4.182,-0.682 5.5,-2 1.318,-1.318 2,-5.5 2,-5.5"
           id="path14696"
           inkscape:connector-curvature="0" />
        <path
           d="m 3180,-1717.64 c 5.54,0 10,-4.46 10,-10 v -20 -10 c 0,-5.54 -4.46,-10 -10,-10 -5.54,0 -10,4.46 -10,10 v 10 c 0,5.54 4.46,10 10,10 1.823,0 3.532,-0.499 5,-1.344 v 11.344 c 0,2.77 -2.23,5 -5,5 -2.77,0 -5,-2.23 -5,-5 v -1 h -5 v 1 c 0,5.54 4.46,10 10,10 m 0,-25 c -2.77,0 -5,-2.23 -5,-5 v -10 c 0,-2.77 2.23,-5 5,-5 2.77,0 5,2.23 5,5 v 10 c 0,2.77 -2.23,5 -5,5"
           id="path14698"
           inkscape:connector-curvature="0" />
        <path
           d="m 3480,-1337.64 c -5.54,0 -10,4.46 -10,10 v 20 10 c 0,5.54 4.46,10 10,10 5.54,0 10,-4.46 10,-10 v -10 c 0,-5.54 -4.46,-10 -10,-10 -1.823,0 -3.532,0.499 -5,1.344 v -11.344 c 0,-2.77 2.23,-5 5,-5 2.77,0 5,2.23 5,5 v 1 h 5 v -1 c 0,-5.54 -4.46,-10 -10,-10 m 0,25 c 2.77,0 5,2.23 5,5 v 10 c 0,2.77 -2.23,5 -5,5 -2.77,0 -5,-2.23 -5,-5 v -10 c 0,-2.77 2.23,-5 5,-5"
           id="path14700"
           inkscape:connector-curvature="0" />
        <path
           d="m 3250,-1727.64 c 0,0 1.82,-11.153 5.333,-14.667 3.514,-3.514 9.698,-5.333 14.667,-5.333 4.969,0 11.153,1.82 14.667,5.333 3.514,3.514 5.333,9.698 5.333,14.667 0,4.969 -2.667,12 -5.333,14.667 -2.667,2.667 -5.333,4 -8,6.667 -2.667,2.667 -4,2.667 -6.667,5.333 -2.667,2.667 -4,4 -6.667,6.667 -2.667,2.667 -6.667,8 -9.333,13.333 -2.667,5.333 -4,13.333 -4,13.333 0,0 -1.333,-8 -4,-13.333 -2.667,-5.333 -6.667,-10.667 -9.333,-13.333 -2.667,-2.667 -4,-4 -6.667,-6.667 -2.667,-2.667 -4,-2.667 -6.667,-5.333 -2.667,-2.667 -5.333,-4 -8,-6.667 -2.667,-2.667 -5.333,-9.698 -5.333,-14.667 0,-4.969 1.82,-11.153 5.333,-14.667 3.514,-3.514 9.698,-5.333 14.667,-5.333 4.969,0 11.153,1.82 14.667,5.333 3.514,3.514 5.333,14.667 5.333,14.667"
           id="path14702"
           inkscape:connector-curvature="0" />
        <path
           d="m 3410,-1727.64 c 0,0 1.82,-11.153 5.333,-14.667 3.514,-3.514 9.698,-5.333 14.667,-5.333 4.969,0 11.153,1.82 14.667,5.333 3.514,3.514 5.333,9.698 5.333,14.667 0,4.969 -2.667,12 -5.333,14.667 -2.667,2.667 -5.333,4 -8,6.667 -2.667,2.667 -4,2.667 -6.667,5.333 -2.667,2.667 -4,4 -6.667,6.667 -2.667,2.667 -6.667,8 -9.333,13.333 -2.667,5.333 -4,13.333 -4,13.333 0,0 -1.333,-8 -4,-13.333 -2.667,-5.333 -6.667,-10.667 -9.333,-13.333 -2.667,-2.667 -4,-4 -6.667,-6.667 -2.667,-2.667 -4,-2.667 -6.667,-5.333 -2.667,-2.667 -5.333,-4 -8,-6.667 -2.667,-2.667 -5.333,-9.698 -5.333,-14.667 0,-4.969 1.82,-11.153 5.333,-14.667 3.514,-3.514 9.698,-5.333 14.667,-5.333 4.969,0 11.153,1.82 14.667,5.333 3.514,3.514 5.333,14.667 5.333,14.667"
           id="path14704"
           inkscape:connector-curvature="0" />
        <path
           d="m 3250,-1607.64 c 0,0 1.82,-11.153 5.333,-14.667 3.514,-3.514 9.698,-5.333 14.667,-5.333 4.969,0 11.153,1.82 14.667,5.333 3.514,3.514 5.333,9.698 5.333,14.667 0,4.969 -2.667,12 -5.333,14.667 -2.667,2.667 -5.333,4 -8,6.667 -2.667,2.667 -4,2.667 -6.667,5.333 -2.667,2.667 -4,4 -6.667,6.667 -2.667,2.667 -6.667,8 -9.333,13.333 -2.667,5.333 -4,13.333 -4,13.333 0,0 -1.333,-8 -4,-13.333 -2.667,-5.333 -6.667,-10.667 -9.333,-13.333 -2.667,-2.667 -4,-4 -6.667,-6.667 -2.667,-2.667 -4,-2.667 -6.667,-5.333 -2.667,-2.667 -5.333,-4 -8,-6.667 -2.667,-2.667 -5.333,-9.698 -5.333,-14.667 0,-4.969 1.82,-11.153 5.333,-14.667 3.514,-3.514 9.698,-5.333 14.667,-5.333 4.969,0 11.153,1.82 14.667,5.333 3.514,3.514 5.333,14.667 5.333,14.667"
           id="path14706"
           inkscape:connector-curvature="0" />
        <path
           d="m 3410,-1607.64 c 0,0 1.82,-11.153 5.333,-14.667 3.514,-3.514 9.698,-5.333 14.667,-5.333 4.969,0 11.153,1.82 14.667,5.333 3.514,3.514 5.333,9.698 5.333,14.667 0,4.969 -2.667,12 -5.333,14.667 -2.667,2.667 -5.333,4 -8,6.667 -2.667,2.667 -4,2.667 -6.667,5.333 -2.667,2.667 -4,4 -6.667,6.667 -2.667,2.667 -6.667,8 -9.333,13.333 -2.667,5.333 -4,13.333 -4,13.333 0,0 -1.333,-8 -4,-13.333 -2.667,-5.333 -6.667,-10.667 -9.333,-13.333 -2.667,-2.667 -4,-4 -6.667,-6.667 -2.667,-2.667 -4,-2.667 -6.667,-5.333 -2.667,-2.667 -5.333,-4 -8,-6.667 -2.667,-2.667 -5.333,-9.698 -5.333,-14.667 0,-4.969 1.82,-11.153 5.333,-14.667 3.514,-3.514 9.698,-5.333 14.667,-5.333 4.969,0 11.153,1.82 14.667,5.333 3.514,3.514 5.333,14.667 5.333,14.667"
           id="path14708"
           inkscape:connector-curvature="0" />
        <path
           d="m 3250,-1327.64 c 0,0 1.82,11.153 5.333,14.667 3.514,3.514 9.698,5.333 14.667,5.333 4.969,0 11.153,-1.82 14.667,-5.333 3.514,-3.514 5.333,-9.698 5.333,-14.667 0,-4.969 -2.667,-12 -5.333,-14.667 -2.667,-2.667 -5.333,-4 -8,-6.667 -2.667,-2.667 -4,-2.667 -6.667,-5.333 -2.667,-2.667 -4,-4 -6.667,-6.667 -2.667,-2.667 -6.667,-8 -9.333,-13.333 -2.667,-5.333 -4,-13.333 -4,-13.333 0,0 -1.333,8 -4,13.333 -2.667,5.333 -6.667,10.667 -9.333,13.333 -2.667,2.667 -4,4 -6.667,6.667 -2.667,2.667 -4,2.667 -6.667,5.333 -2.667,2.667 -5.333,4 -8,6.667 -2.667,2.667 -5.333,9.698 -5.333,14.667 0,4.969 1.82,11.153 5.333,14.667 3.514,3.514 9.698,5.333 14.667,5.333 4.969,0 11.153,-1.82 14.667,-5.333 3.514,-3.514 5.333,-14.667 5.333,-14.667"
           id="path14710"
           inkscape:connector-curvature="0" />
        <path
           d="m 3410,-1327.64 c 0,0 1.82,11.153 5.333,14.667 3.514,3.514 9.698,5.333 14.667,5.333 4.969,0 11.153,-1.82 14.667,-5.333 3.514,-3.514 5.333,-9.698 5.333,-14.667 0,-4.969 -2.667,-12 -5.333,-14.667 -2.667,-2.667 -5.333,-4 -8,-6.667 -2.667,-2.667 -4,-2.667 -6.667,-5.333 -2.667,-2.667 -4,-4 -6.667,-6.667 -2.667,-2.667 -6.667,-8 -9.333,-13.333 -2.667,-5.333 -4,-13.333 -4,-13.333 0,0 -1.333,8 -4,13.333 -2.667,5.333 -6.667,10.667 -9.333,13.333 -2.667,2.667 -4,4 -6.667,6.667 -2.667,2.667 -4,2.667 -6.667,5.333 -2.667,2.667 -5.333,4 -8,6.667 -2.667,2.667 -5.333,9.698 -5.333,14.667 0,4.969 1.82,11.153 5.333,14.667 3.514,3.514 9.698,5.333 14.667,5.333 4.969,0 11.153,-1.82 14.667,-5.333 3.514,-3.514 5.333,-14.667 5.333,-14.667"
           id="path14712"
           inkscape:connector-curvature="0" />
        <path
           d="m 3250,-1447.64 c 0,0 1.82,11.153 5.333,14.667 3.514,3.514 9.698,5.333 14.667,5.333 4.969,0 11.153,-1.82 14.667,-5.333 3.514,-3.514 5.333,-9.698 5.333,-14.667 0,-4.969 -2.667,-12 -5.333,-14.667 -2.667,-2.667 -5.333,-4 -8,-6.667 -2.667,-2.667 -4,-2.667 -6.667,-5.333 -2.667,-2.667 -4,-4 -6.667,-6.667 -2.667,-2.667 -6.667,-8 -9.333,-13.333 -2.667,-5.333 -4,-13.333 -4,-13.333 0,0 -1.333,8 -4,13.333 -2.667,5.333 -6.667,10.667 -9.333,13.333 -2.667,2.667 -4,4 -6.667,6.667 -2.667,2.667 -4,2.667 -6.667,5.333 -2.667,2.667 -5.333,4 -8,6.667 -2.667,2.667 -5.333,9.698 -5.333,14.667 0,4.969 1.82,11.153 5.333,14.667 3.514,3.514 9.698,5.333 14.667,5.333 4.969,0 11.153,-1.82 14.667,-5.333 3.514,-3.514 5.333,-14.667 5.333,-14.667"
           id="path14714"
           inkscape:connector-curvature="0" />
        <path
           d="m 3410,-1447.64 c 0,0 1.82,11.153 5.333,14.667 3.514,3.514 9.698,5.333 14.667,5.333 4.969,0 11.153,-1.82 14.667,-5.333 3.514,-3.514 5.333,-9.698 5.333,-14.667 0,-4.969 -2.667,-12 -5.333,-14.667 -2.667,-2.667 -5.333,-4 -8,-6.667 -2.667,-2.667 -4,-2.667 -6.667,-5.333 -2.667,-2.667 -4,-4 -6.667,-6.667 -2.667,-2.667 -6.667,-8 -9.333,-13.333 -2.667,-5.333 -4,-13.333 -4,-13.333 0,0 -1.333,8 -4,13.333 -2.667,5.333 -6.667,10.667 -9.333,13.333 -2.667,2.667 -4,4 -6.667,6.667 -2.667,2.667 -4,2.667 -6.667,5.333 -2.667,2.667 -5.333,4 -8,6.667 -2.667,2.667 -5.333,9.698 -5.333,14.667 0,4.969 1.82,11.153 5.333,14.667 3.514,3.514 9.698,5.333 14.667,5.333 4.969,0 11.153,-1.82 14.667,-5.333 3.514,-3.514 5.333,-14.667 5.333,-14.667"
           id="path14716"
           inkscape:connector-curvature="0" />
        <path
           d="m 3330,-1547.64 c 0,0 1.82,-11.153 5.333,-14.667 3.514,-3.514 9.698,-5.333 14.667,-5.333 4.969,0 11.153,1.82 14.667,5.333 3.514,3.514 5.333,9.698 5.333,14.667 0,4.969 -2.667,12 -5.333,14.667 -2.667,2.667 -5.333,4 -8,6.667 -2.667,2.667 -4,2.667 -6.667,5.333 -2.667,2.667 -4,4 -6.667,6.667 -2.667,2.667 -6.667,8 -9.333,13.333 -2.667,5.333 -4,13.333 -4,13.333 0,0 -1.333,-8 -4,-13.333 -2.667,-5.333 -6.667,-10.667 -9.333,-13.333 -2.667,-2.667 -4,-4 -6.667,-6.667 -2.667,-2.667 -4,-2.667 -6.667,-5.333 -2.667,-2.667 -5.333,-4 -8,-6.667 -2.667,-2.667 -5.333,-9.698 -5.333,-14.667 0,-4.969 1.82,-11.153 5.333,-14.667 3.514,-3.514 9.698,-5.333 14.667,-5.333 4.969,0 11.153,1.82 14.667,5.333 3.514,3.514 5.333,14.667 5.333,14.667"
           id="path14718"
           inkscape:connector-curvature="0" />
      </g>
      <g
         id="g14326" class="card"
         transform="matrix(0.32197613,-0.08627325,0.08627325,0.32197613,-1293.7342,-726.64403)">
        <rect
           style="fill:#ffffff;stroke:#000000"
           id="rect14328"
           y="512.85999"
           x="0.5"
           rx="29.944"
           height="539"
           width="359" />
        <path
           id="path14330"
           d="m 30,542.36 c -5.54,0 -10,4.46 -10,10 v 5 c 0,3 1.323,5.67 3.406,7.5 -2.083,1.83 -3.406,4.496 -3.406,7.5 v 10 c 0,5.54 4.46,10 10,10 5.54,0 10,-4.46 10,-10 v -10 c 0,-3 -1.323,-5.67 -3.406,-7.5 2.083,-1.83 3.406,-4.496 3.406,-7.5 v -5 c 0,-5.54 -4.46,-10 -10,-10 m 0,5 c 2.77,0 5,2.23 5,5 v 5 c 0,2.77 -2.23,5 -5,5 -2.77,0 -5,-2.23 -5,-5 v -5 c 0,-2.77 2.23,-5 5,-5 m 0,20 c 2.77,0 5,2.23 5,5 v 10 c 0,2.77 -2.23,5 -5,5 -2.77,0 -5,-2.23 -5,-5 v -10 c 0,-2.77 2.23,-5 5,-5"
           inkscape:connector-curvature="0" />
        <path
           id="path14332"
           d="m 330,1022.36 c -5.54,0 -10,-4.46 -10,-10 v -5 c 0,-3 1.323,-5.67 3.406,-7.5 -2.083,-1.83 -3.406,-4.496 -3.406,-7.5 v -10 c 0,-5.54 4.46,-10 10,-10 5.54,0 10,4.46 10,10 v 10 c 0,3 -1.323,5.67 -3.406,7.5 2.083,1.83 3.406,4.496 3.406,7.5 v 5 c 0,5.54 -4.46,10 -10,10 m 0,-5 c 2.77,0 5,-2.23 5,-5 v -5 c 0,-2.77 -2.23,-5 -5,-5 -2.77,0 -5,2.23 -5,5 v 5 c 0,2.77 2.23,5 5,5 m 0,-20 c 2.77,0 5,-2.23 5,-5 v -10 c 0,-2.77 -2.23,-5 -5,-5 -2.77,0 -5,2.23 -5,5 v 10 c 0,2.77 2.23,5 5,5"
           inkscape:connector-curvature="0" />
        <path
           id="path14334"
           d="m 100,562.36 c -1.333,6.667 -2.855,8.392 -5.333,12 -2.135,3.109 -5.122,5.562 -8,8 -2.917,2.471 -6.248,4.408 -9.333,6.667 -3.586,2.625 -7.819,4.588 -10.667,8 -3.184,3.815 -6.667,8.364 -6.667,13.333 0,3.975 2.408,7.975 5.333,10.667 3.523,3.241 8.548,5.444 13.333,5.333 5.369,-0.124 10.8,-2.94 14.667,-6.667 2.862,-2.758 5.333,-10.667 5.333,-10.667 v 2.667 c 0,1.333 -0.133,7.29 -1.333,10.667 -1.404,3.951 -3.83,7.579 -6.667,10.667 -3.01,3.273 -10.667,8 -10.667,8 v 1.333 c 0,0 10.612,-2.221 16,-2.667 2.658,-0.22 5.342,-0.22 8,0 5.388,0.446 16,2.667 16,2.667 v -1.333 c 0,0 -7.66,-4.727 -10.667,-8 -2.836,-3.088 -5.263,-6.716 -6.667,-10.667 -1.2,-3.376 -1.333,-10.667 -1.333,-10.667 v -2.667 c 0,0 2.471,7.908 5.333,10.667 3.867,3.726 9.298,6.543 14.667,6.667 4.786,0.11 9.811,-2.092 13.333,-5.333 2.925,-2.692 5.333,-6.691 5.333,-10.667 0,-4.969 -3.483,-9.518 -6.667,-13.333 -2.848,-3.412 -7.08,-5.375 -10.667,-8 -3.085,-2.258 -6.416,-4.195 -9.333,-6.667 -2.878,-2.438 -5.865,-4.891 -8,-8 -2.478,-3.608 -4,-5.333 -5.333,-12"
           inkscape:connector-curvature="0" />
        <path
           id="path14336"
           d="m 260,562.36 c -1.333,6.667 -2.855,8.392 -5.333,12 -2.135,3.109 -5.122,5.562 -8,8 -2.917,2.471 -6.248,4.408 -9.333,6.667 -3.586,2.625 -7.819,4.588 -10.667,8 -3.184,3.815 -6.667,8.364 -6.667,13.333 0,3.975 2.408,7.975 5.333,10.667 3.523,3.241 8.548,5.444 13.333,5.333 5.369,-0.124 10.8,-2.94 14.667,-6.667 2.862,-2.758 5.333,-10.667 5.333,-10.667 v 2.667 c 0,1.333 -0.133,7.29 -1.333,10.667 -1.404,3.951 -3.83,7.579 -6.667,10.667 -3.01,3.273 -10.667,8 -10.667,8 v 1.333 c 0,0 10.612,-2.221 16,-2.667 2.658,-0.22 5.342,-0.22 8,0 5.388,0.446 16,2.667 16,2.667 v -1.333 c 0,0 -7.66,-4.727 -10.667,-8 -2.836,-3.088 -5.263,-6.716 -6.667,-10.667 -1.2,-3.376 -1.333,-10.667 -1.333,-10.667 v -2.667 c 0,0 2.471,7.908 5.333,10.667 3.867,3.726 9.298,6.543 14.667,6.667 4.786,0.11 9.811,-2.092 13.333,-5.333 2.925,-2.692 5.333,-6.691 5.333,-10.667 0,-4.969 -3.483,-9.518 -6.667,-13.333 -2.848,-3.412 -7.08,-5.375 -10.667,-8 -3.085,-2.258 -6.416,-4.195 -9.333,-6.667 -2.878,-2.438 -5.865,-4.891 -8,-8 -2.478,-3.608 -4,-5.333 -5.333,-12"
           inkscape:connector-curvature="0" />
        <path
           id="path14338"
           d="m 180,652.36 c -1.333,6.667 -2.855,8.392 -5.333,12 -2.135,3.109 -5.122,5.563 -8,8 -2.917,2.472 -6.248,4.41 -9.333,6.667 -3.586,2.625 -7.819,4.588 -10.667,8 -3.184,3.814 -6.667,8.364 -6.667,13.333 0,3.976 2.408,7.974 5.333,10.667 3.523,3.241 8.548,5.444 13.333,5.333 5.369,-0.12 10.8,-2.94 14.667,-6.667 2.862,-2.759 5.333,-10.667 5.333,-10.667 v 2.667 c 0,1.333 -0.133,7.291 -1.333,10.667 -1.404,3.951 -3.83,7.579 -6.667,10.667 -3.01,3.274 -10.667,8 -10.667,8 v 1.333 c 0,0 10.612,-2.22 16,-2.667 2.658,-0.22 5.342,-0.22 8,0 5.388,0.446 16,2.667 16,2.667 v -1.333 c 0,0 -7.66,-4.726 -10.667,-8 -2.836,-3.088 -5.263,-6.716 -6.667,-10.667 -1.2,-3.376 -1.333,-10.667 -1.333,-10.667 v -2.667 c 0,0 2.471,7.908 5.333,10.667 3.867,3.726 9.298,6.543 14.667,6.667 4.786,0.107 9.811,-2.092 13.333,-5.333 2.925,-2.692 5.333,-6.691 5.333,-10.667 0,-4.969 -3.483,-9.519 -6.667,-13.333 -2.848,-3.412 -7.08,-5.375 -10.667,-8 -3.085,-2.257 -6.416,-4.195 -9.333,-6.667 -2.878,-2.437 -5.865,-4.891 -8,-8 -2.478,-3.608 -4,-5.333 -5.333,-12"
           inkscape:connector-curvature="0" />
        <path
           id="path14340"
           d="m 100,742.36 c -1.333,6.667 -2.855,8.392 -5.333,12 -2.135,3.109 -5.122,5.562 -8,8 -2.917,2.471 -6.248,4.408 -9.333,6.667 -3.586,2.625 -7.819,4.588 -10.667,8 -3.184,3.815 -6.667,8.364 -6.667,13.333 0,3.975 2.408,7.975 5.333,10.667 3.523,3.241 8.548,5.444 13.333,5.333 5.369,-0.124 10.8,-2.94 14.667,-6.667 2.862,-2.758 5.333,-10.667 5.333,-10.667 v 2.667 c 0,1.333 -0.133,7.29 -1.333,10.667 -1.404,3.951 -3.83,7.579 -6.667,10.667 -3.01,3.273 -10.667,8 -10.667,8 v 1.333 c 0,0 10.612,-2.221 16,-2.667 2.658,-0.22 5.342,-0.22 8,0 5.388,0.446 16,2.667 16,2.667 v -1.333 c 0,0 -7.66,-4.727 -10.667,-8 -2.836,-3.088 -5.263,-6.716 -6.667,-10.667 -1.2,-3.376 -1.333,-10.667 -1.333,-10.667 v -2.667 c 0,0 2.471,7.908 5.333,10.667 3.867,3.726 9.298,6.543 14.667,6.667 4.786,0.11 9.811,-2.092 13.333,-5.333 2.925,-2.692 5.333,-6.691 5.333,-10.667 0,-4.969 -3.483,-9.518 -6.667,-13.333 -2.848,-3.412 -7.08,-5.375 -10.667,-8 -3.085,-2.258 -6.416,-4.195 -9.333,-6.667 -2.878,-2.438 -5.865,-4.891 -8,-8 -2.478,-3.608 -4,-5.333 -5.333,-12"
           inkscape:connector-curvature="0" />
        <path
           id="path14342"
           d="m 260,742.36 c -1.333,6.667 -2.855,8.392 -5.333,12 -2.135,3.109 -5.122,5.562 -8,8 -2.917,2.471 -6.248,4.408 -9.333,6.667 -3.586,2.625 -7.819,4.588 -10.667,8 -3.184,3.815 -6.667,8.364 -6.667,13.333 0,3.975 2.408,7.975 5.333,10.667 3.523,3.241 8.548,5.444 13.333,5.333 5.369,-0.124 10.8,-2.94 14.667,-6.667 2.862,-2.758 5.333,-10.667 5.333,-10.667 v 2.667 c 0,1.333 -0.133,7.29 -1.333,10.667 -1.404,3.951 -3.83,7.579 -6.667,10.667 -3.01,3.273 -10.667,8 -10.667,8 v 1.333 c 0,0 10.612,-2.221 16,-2.667 2.658,-0.22 5.342,-0.22 8,0 5.388,0.446 16,2.667 16,2.667 v -1.333 c 0,0 -7.66,-4.727 -10.667,-8 -2.836,-3.088 -5.263,-6.716 -6.667,-10.667 -1.2,-3.376 -1.333,-10.667 -1.333,-10.667 v -2.667 c 0,0 2.471,7.908 5.333,10.667 3.867,3.726 9.298,6.543 14.667,6.667 4.786,0.11 9.811,-2.092 13.333,-5.333 2.925,-2.692 5.333,-6.691 5.333,-10.667 0,-4.969 -3.483,-9.518 -6.667,-13.333 -2.848,-3.412 -7.08,-5.375 -10.667,-8 -3.085,-2.258 -6.416,-4.195 -9.333,-6.667 -2.878,-2.438 -5.865,-4.891 -8,-8 -2.478,-3.608 -4,-5.333 -5.333,-12"
           inkscape:connector-curvature="0" />
        <path
           id="path14344"
           d="m 180,912.36 c -1.333,-6.667 -2.855,-8.392 -5.333,-12 -2.135,-3.109 -5.122,-5.562 -8,-8 -2.917,-2.471 -6.248,-4.408 -9.333,-6.667 -3.586,-2.625 -7.819,-4.588 -10.667,-8 -3.184,-3.815 -6.667,-8.364 -6.667,-13.333 0,-3.975 2.408,-7.975 5.333,-10.667 3.523,-3.241 8.548,-5.444 13.333,-5.333 5.369,0.124 10.8,2.94 14.667,6.667 2.862,2.758 5.333,10.667 5.333,10.667 v -2.667 c 0,-1.333 -0.133,-7.29 -1.333,-10.667 -1.404,-3.951 -3.83,-7.579 -6.667,-10.667 -3.01,-3.273 -10.667,-8 -10.667,-8 v -1.333 c 0,0 10.612,2.221 16,2.667 2.658,0.22 5.342,0.22 8,0 5.388,-0.446 16,-2.667 16,-2.667 v 1.333 c 0,0 -7.66,4.727 -10.667,8 -2.836,3.088 -5.263,6.716 -6.667,10.667 -1.2,3.376 -1.333,10.667 -1.333,10.667 v 2.667 c 0,0 2.471,-7.908 5.333,-10.667 3.867,-3.726 9.298,-6.543 14.667,-6.667 4.786,-0.11 9.811,2.092 13.333,5.333 2.925,2.692 5.333,6.691 5.333,10.667 0,4.969 -3.483,9.518 -6.667,13.333 -2.848,3.412 -7.08,5.375 -10.667,8 -3.085,2.258 -6.416,4.195 -9.333,6.667 -2.878,2.438 -5.865,4.891 -8,8 -2.478,3.608 -4,5.333 -5.333,12"
           inkscape:connector-curvature="0" />
        <path
           id="path14346"
           d="m 100,1002.36 c -1.333,-6.667 -2.855,-8.392 -5.333,-12 -2.135,-3.109 -5.122,-5.562 -8,-8 -2.917,-2.471 -6.248,-4.408 -9.333,-6.667 -3.586,-2.625 -7.819,-4.588 -10.667,-8 C 63.483,963.878 60,959.329 60,954.36 c 0,-3.975 2.408,-7.975 5.333,-10.667 3.523,-3.241 8.548,-5.444 13.333,-5.333 5.369,0.124 10.8,2.94 14.667,6.667 2.862,2.758 5.333,10.667 5.333,10.667 v -2.667 c 0,-1.333 -0.133,-7.29 -1.333,-10.667 -1.404,-3.951 -3.83,-7.579 -6.667,-10.667 -3.01,-3.273 -10.667,-8 -10.667,-8 v -1.333 c 0,0 10.612,2.221 16,2.667 2.658,0.22 5.342,0.22 8,0 5.388,-0.446 16,-2.667 16,-2.667 v 1.333 c 0,0 -7.66,4.727 -10.667,8 -2.836,3.088 -5.263,6.716 -6.667,10.667 -1.2,3.376 -1.333,10.667 -1.333,10.667 v 2.667 c 0,0 2.471,-7.908 5.333,-10.667 3.867,-3.726 9.298,-6.543 14.667,-6.667 4.786,-0.11 9.811,2.092 13.333,5.333 2.925,2.692 5.333,6.691 5.333,10.667 0,4.969 -3.483,9.518 -6.667,13.333 -2.848,3.412 -7.08,5.375 -10.667,8 -3.085,2.258 -6.416,4.195 -9.333,6.667 -2.878,2.438 -5.865,4.891 -8,8 -2.478,3.608 -4,5.333 -5.333,12"
           inkscape:connector-curvature="0" />
        <path
           id="path14348"
           d="m 260,1002.36 c -1.333,-6.667 -2.855,-8.392 -5.333,-12 -2.135,-3.109 -5.122,-5.562 -8,-8 -2.917,-2.471 -6.248,-4.408 -9.333,-6.667 -3.586,-2.625 -7.819,-4.588 -10.667,-8 -3.184,-3.815 -6.667,-8.364 -6.667,-13.333 0,-3.975 2.408,-7.975 5.333,-10.667 3.523,-3.241 8.548,-5.444 13.333,-5.333 5.369,0.124 10.8,2.94 14.667,6.667 2.862,2.758 5.333,10.667 5.333,10.667 v -2.667 c 0,-1.333 -0.133,-7.29 -1.333,-10.667 -1.404,-3.951 -3.83,-7.579 -6.667,-10.667 -3.01,-3.273 -10.667,-8 -10.667,-8 v -1.333 c 0,0 10.612,2.221 16,2.667 2.658,0.22 5.342,0.22 8,0 5.388,-0.446 16,-2.667 16,-2.667 v 1.333 c 0,0 -7.66,4.727 -10.667,8 -2.836,3.088 -5.263,6.716 -6.667,10.667 -1.2,3.376 -1.333,10.667 -1.333,10.667 v 2.667 c 0,0 2.471,-7.908 5.333,-10.667 3.867,-3.726 9.298,-6.543 14.667,-6.667 4.786,-0.11 9.811,2.092 13.333,5.333 2.925,2.692 5.333,6.691 5.333,10.667 0,4.969 -3.483,9.518 -6.667,13.333 -2.848,3.412 -7.08,5.375 -10.667,8 -3.085,2.258 -6.416,4.195 -9.333,6.667 -2.878,2.438 -5.865,4.891 -8,8 -2.478,3.608 -4,5.333 -5.333,12"
           inkscape:connector-curvature="0" />
        <path
           id="path14350"
           d="m 30,602.36 c -0.5,2.5 -1.071,3.147 -2,4.5 -0.801,1.166 -1.921,2.086 -3,3 -1.094,0.927 -2.343,1.653 -3.5,2.5 -1.345,0.984 -2.932,1.72 -4,3 -1.194,1.431 -2.5,3.137 -2.5,5 0,1.491 0.903,2.991 2,4 1.321,1.215 3.205,2.041 5,2 2.01,-0.046 4.05,-1.103 5.5,-2.5 1.073,-1.034 2,-4 2,-4 v 1 c 0,0.5 -0.05,2.734 -0.5,4 -0.527,1.482 -1.436,2.842 -2.5,4 -1.127,1.227 -4,3 -4,3 v 0.5 c 0,0 3.979,-0.833 6,-1 0.997,-0.082 2,-0.082 3,0 2.02,0.167 6,1 6,1 v -0.5 c 0,0 -2.873,-1.773 -4,-3 -1.064,-1.158 -1.973,-2.518 -2.5,-4 -0.45,-1.266 -0.5,-4 -0.5,-4 v -1 c 0,0 0.927,2.966 2,4 1.45,1.397 3.487,2.454 5.5,2.5 1.795,0.041 3.679,-0.785 5,-2 1.097,-1.01 2,-2.509 2,-4 0,-1.863 -1.306,-3.569 -2.5,-5 -1.068,-1.28 -2.655,-2.02 -4,-3 -1.157,-0.847 -2.406,-1.573 -3.5,-2.5 -1.079,-0.914 -2.199,-1.834 -3,-3 -0.929,-1.353 -1.5,-2 -2,-4.5"
           inkscape:connector-curvature="0" />
        <path
           id="path14352"
           d="m 330,962.36 c -0.5,-2.5 -1.071,-3.147 -2,-4.5 -0.801,-1.166 -1.921,-2.086 -3,-3 -1.094,-0.927 -2.343,-1.653 -3.5,-2.5 -1.345,-0.984 -2.932,-1.72 -4,-3 -1.194,-1.431 -2.5,-3.137 -2.5,-5 0,-1.491 0.903,-2.991 2,-4 1.321,-1.215 3.205,-2.041 5,-2 2.01,0.046 4.05,1.103 5.5,2.5 1.073,1.034 2,4 2,4 v -1 c 0,-0.5 -0.05,-2.734 -0.5,-4 -0.527,-1.482 -1.436,-2.842 -2.5,-4 -1.127,-1.227 -4,-3 -4,-3 v -0.5 c 0,0 3.979,0.833 6,1 0.997,0.082 2,0.082 3,0 2.02,-0.167 6,-1 6,-1 v 0.5 c 0,0 -2.873,1.773 -4,3 -1.064,1.158 -1.973,2.518 -2.5,4 -0.45,1.266 -0.5,4 -0.5,4 v 1 c 0,0 0.927,-2.966 2,-4 1.45,-1.397 3.487,-2.454 5.5,-2.5 1.795,-0.041 3.679,0.785 5,2 1.097,1.01 2,2.509 2,4 0,1.863 -1.306,3.569 -2.5,5 -1.068,1.28 -2.655,2.02 -4,3 -1.157,0.847 -2.406,1.573 -3.5,2.5 -1.079,0.914 -2.199,1.834 -3,3 -0.929,1.353 -1.5,2 -2,4.5"
           inkscape:connector-curvature="0" />
      </g>
      <g
         id="g428" class="card"
         transform="matrix(0.33333334,0,0,0.33333334,-1168.2553,-758.87188)">
        <rect
           style="fill:#ffffff;stroke:#000000"
           id="rect430"
           y="512.85999"
           x="0.5"
           rx="29.944"
           height="539"
           width="359" />
        <g
           style="fill:#ff5555"
           id="g432">
          <path
             id="path434"
             d="m 100,562.36 c 0,0 8,13.333 17.333,22.667 9.333,9.333 22.667,17.333 22.667,17.333 0,0 -13.333,8 -22.667,17.333 C 108,629.026 100,642.36 100,642.36 c 0,0 -8,-13.333 -17.333,-22.667 C 73.334,610.36 60,602.36 60,602.36 c 0,0 13.333,-8 22.667,-17.333 C 92,575.694 100,562.36 100,562.36"
             inkscape:connector-curvature="0" />
          <path
             id="path436"
             d="m 260,562.36 c 0,0 8,13.333 17.333,22.667 9.333,9.333 22.667,17.333 22.667,17.333 0,0 -13.333,8 -22.667,17.333 C 268,629.026 260,642.36 260,642.36 c 0,0 -8,-13.333 -17.333,-22.667 C 233.334,610.36 220,602.36 220,602.36 c 0,0 13.333,-8 22.667,-17.333 C 252,575.694 260,562.36 260,562.36"
             inkscape:connector-curvature="0" />
          <path
             id="path438"
             d="m 180,652.36 c 0,0 8,13.333 17.333,22.667 9.333,9.333 22.667,17.333 22.667,17.333 0,0 -13.333,8 -22.667,17.333 C 188,719.026 180,732.36 180,732.36 c 0,0 -8,-13.333 -17.333,-22.667 C 153.334,700.36 140,692.36 140,692.36 c 0,0 13.333,-8 22.667,-17.333 C 172,665.694 180,652.36 180,652.36"
             inkscape:connector-curvature="0" />
          <path
             id="path440"
             d="m 100,742.36 c 0,0 8,13.333 17.333,22.667 9.333,9.333 22.667,17.333 22.667,17.333 0,0 -13.333,8 -22.667,17.333 C 108,809.026 100,822.36 100,822.36 c 0,0 -8,-13.333 -17.333,-22.667 C 73.334,790.36 60,782.36 60,782.36 c 0,0 13.333,-8 22.667,-17.333 C 92,755.694 100,742.36 100,742.36"
             inkscape:connector-curvature="0" />
          <path
             id="path442"
             d="m 260,742.36 c 0,0 8,13.333 17.333,22.667 9.333,9.333 22.667,17.333 22.667,17.333 0,0 -13.333,8 -22.667,17.333 C 268,809.026 260,822.36 260,822.36 c 0,0 -8,-13.333 -17.333,-22.667 C 233.334,790.36 220,782.36 220,782.36 c 0,0 13.333,-8 22.667,-17.333 C 252,755.694 260,742.36 260,742.36"
             inkscape:connector-curvature="0" />
          <path
             id="path444"
             d="m 100,922.36 c 0,0 8,13.333 17.333,22.667 9.333,9.333 22.667,17.333 22.667,17.333 0,0 -13.333,8 -22.667,17.333 C 108,989.026 100,1002.36 100,1002.36 c 0,0 -8,-13.333 -17.333,-22.667 C 73.334,970.36 60,962.36 60,962.36 c 0,0 13.333,-8 22.667,-17.333 C 92,935.694 100,922.36 100,922.36"
             inkscape:connector-curvature="0" />
          <path
             id="path446"
             d="m 260,922.36 c 0,0 8,13.333 17.333,22.667 9.333,9.333 22.667,17.333 22.667,17.333 0,0 -13.333,8 -22.667,17.333 C 268,989.026 260,1002.36 260,1002.36 c 0,0 -8,-13.333 -17.333,-22.667 C 233.334,970.36 220,962.36 220,962.36 c 0,0 13.333,-8 22.667,-17.333 C 252,935.694 260,922.36 260,922.36"
             inkscape:connector-curvature="0" />
          <path
             id="path448"
             d="m 330,932.36 c 0,0 3,5 6.5,8.5 3.5,3.5 8.5,6.5 8.5,6.5 0,0 -5,3 -8.5,6.5 -3.5,3.5 -6.5,8.5 -6.5,8.5 0,0 -3,-5 -6.5,-8.5 -3.5,-3.5 -8.5,-6.5 -8.5,-6.5 0,0 5,-3 8.5,-6.5 3.5,-3.5 6.5,-8.5 6.5,-8.5"
             inkscape:connector-curvature="0" />
          <path
             id="path450"
             d="m 30,602.36 c 0,0 3,5 6.5,8.5 3.5,3.5 8.5,6.5 8.5,6.5 0,0 -5,3 -8.5,6.5 -3.5,3.5 -6.5,8.5 -6.5,8.5 0,0 -3,-5 -6.5,-8.5 -3.5,-3.5 -8.5,-6.5 -8.5,-6.5 0,0 5,-3 8.5,-6.5 3.5,-3.5 6.5,-8.5 6.5,-8.5"
             inkscape:connector-curvature="0" />
          <path
             id="path452"
             d="m 20,542.36 v 5 5 h 5 v -5 h 10 l -10,45 h 5 l 10,-45 v -5 H 20"
             inkscape:connector-curvature="0" />
          <path
             id="path454"
             d="m 340,1022.36 v -5 -5 h -5 v 5 h -10 l 10,-45 h -5 l -10,45 v 5 h 20"
             inkscape:connector-curvature="0" />
        </g>
      </g>
      <g
         id="g402" class="card"
         transform="matrix(0.32197613,0.08627325,-0.08627325,0.32197613,-1038.7408,-757.70239)">
        <rect
           style="fill:#ffffff;stroke:#000000"
           id="rect404"
           y="512.85999"
           x="0.5"
           rx="29.944"
           height="539"
           width="359" />
        <g
           style="fill:#ff5555"
           id="g406">
          <path
             id="path408"
             d="m 100,562.36 c 0,0 8,13.333 17.333,22.667 9.333,9.333 22.667,17.333 22.667,17.333 0,0 -13.333,8 -22.667,17.333 C 108,629.026 100,642.36 100,642.36 c 0,0 -8,-13.333 -17.333,-22.667 C 73.334,610.36 60,602.36 60,602.36 c 0,0 13.333,-8 22.667,-17.333 C 92,575.694 100,562.36 100,562.36"
             inkscape:connector-curvature="0" />
          <path
             id="path410"
             d="m 260,562.36 c 0,0 8,13.333 17.333,22.667 9.333,9.333 22.667,17.333 22.667,17.333 0,0 -13.333,8 -22.667,17.333 C 268,629.026 260,642.36 260,642.36 c 0,0 -8,-13.333 -17.333,-22.667 C 233.334,610.36 220,602.36 220,602.36 c 0,0 13.333,-8 22.667,-17.333 C 252,575.694 260,562.36 260,562.36"
             inkscape:connector-curvature="0" />
          <path
             id="path412"
             d="m 100,742.36 c 0,0 8,13.333 17.333,22.667 9.333,9.333 22.667,17.333 22.667,17.333 0,0 -13.333,8 -22.667,17.333 C 108,809.026 100,822.36 100,822.36 c 0,0 -8,-13.333 -17.333,-22.667 C 73.334,790.36 60,782.36 60,782.36 c 0,0 13.333,-8 22.667,-17.333 C 92,755.694 100,742.36 100,742.36"
             inkscape:connector-curvature="0" />
          <path
             id="path414"
             d="m 260,742.36 c 0,0 8,13.333 17.333,22.667 9.333,9.333 22.667,17.333 22.667,17.333 0,0 -13.333,8 -22.667,17.333 C 268,809.026 260,822.36 260,822.36 c 0,0 -8,-13.333 -17.333,-22.667 C 233.334,790.36 220,782.36 220,782.36 c 0,0 13.333,-8 22.667,-17.333 C 252,755.694 260,742.36 260,742.36"
             inkscape:connector-curvature="0" />
          <path
             id="path416"
             d="m 100,922.36 c 0,0 8,13.333 17.333,22.667 9.333,9.333 22.667,17.333 22.667,17.333 0,0 -13.333,8 -22.667,17.333 C 108,989.026 100,1002.36 100,1002.36 c 0,0 -8,-13.333 -17.333,-22.667 C 73.334,970.36 60,962.36 60,962.36 c 0,0 13.333,-8 22.667,-17.333 C 92,935.694 100,922.36 100,922.36"
             inkscape:connector-curvature="0" />
          <path
             id="path418"
             d="m 260,922.36 c 0,0 8,13.333 17.333,22.667 9.333,9.333 22.667,17.333 22.667,17.333 0,0 -13.333,8 -22.667,17.333 C 268,989.026 260,1002.36 260,1002.36 c 0,0 -8,-13.333 -17.333,-22.667 C 233.334,970.36 220,962.36 220,962.36 c 0,0 13.333,-8 22.667,-17.333 C 252,935.694 260,922.36 260,922.36"
             inkscape:connector-curvature="0" />
          <path
             id="path420"
             d="m 330,932.36 c 0,0 3,5 6.5,8.5 3.5,3.5 8.5,6.5 8.5,6.5 0,0 -5,3 -8.5,6.5 -3.5,3.5 -6.5,8.5 -6.5,8.5 0,0 -3,-5 -6.5,-8.5 -3.5,-3.5 -8.5,-6.5 -8.5,-6.5 0,0 5,-3 8.5,-6.5 3.5,-3.5 6.5,-8.5 6.5,-8.5"
             inkscape:connector-curvature="0" />
          <path
             id="path422"
             d="m 30,602.36 c 0,0 3,5 6.5,8.5 3.5,3.5 8.5,6.5 8.5,6.5 0,0 -5,3 -8.5,6.5 -3.5,3.5 -6.5,8.5 -6.5,8.5 0,0 -3,-5 -6.5,-8.5 -3.5,-3.5 -8.5,-6.5 -8.5,-6.5 0,0 5,-3 8.5,-6.5 3.5,-3.5 6.5,-8.5 6.5,-8.5"
             inkscape:connector-curvature="0" />
          <path
             id="path424"
             d="m 30,542.36 c -5.54,0 -10,4.46 -10,10 v 20 10 c 0,5.54 4.46,10 10,10 5.54,0 10,-4.46 10,-10 v -10 c 0,-5.54 -4.46,-10 -10,-10 -1.823,0 -3.532,0.499 -5,1.344 V 552.36 c 0,-2.77 2.23,-5 5,-5 2.77,0 5,2.23 5,5 v 1 h 5 v -1 c 0,-5.54 -4.46,-10 -10,-10 m 0,25 c 2.77,0 5,2.23 5,5 v 10 c 0,2.77 -2.23,5 -5,5 -2.77,0 -5,-2.23 -5,-5 v -10 c 0,-2.77 2.23,-5 5,-5"
             inkscape:connector-curvature="0" />
          <path
             id="path426"
             d="m 330,1022.36 c 5.54,0 10,-4.46 10,-10 v -20 -10 c 0,-5.54 -4.46,-10 -10,-10 -5.54,0 -10,4.46 -10,10 v 10 c 0,5.54 4.46,10 10,10 1.823,0 3.532,-0.499 5,-1.344 v 11.344 c 0,2.77 -2.23,5 -5,5 -2.77,0 -5,-2.23 -5,-5 v -1 h -5 v 1 c 0,5.54 4.46,10 10,10 m 0,-25 c -2.77,0 -5,-2.23 -5,-5 v -10 c 0,-2.77 2.23,-5 5,-5 2.77,0 5,2.23 5,5 v 10 c 0,2.77 -2.23,5 -5,5"
             inkscape:connector-curvature="0" />
        </g>
      </g>
      <g
         id="g378" class="card"
         transform="matrix(0.28867587,0.16666709,-0.16666709,0.28867587,-909.56827,-721.16953)">
        <rect
           style="fill:#ffffff;stroke:#000000"
           id="rect380"
           y="512.85999"
           x="0.5"
           rx="29.944"
           height="539"
           width="359" />
        <g
           style="fill:#ff5555"
           id="g382">
          <path
             id="path384"
             d="m 30,609.86 c 0,0 0.682,-4.182 2,-5.5 1.318,-1.318 3.637,-2 5.5,-2 1.863,0 4.182,0.682 5.5,2 1.318,1.318 2,3.637 2,5.5 0,1.863 -1,4.5 -2,5.5 -1,1 -2,1.5 -3,2.5 -1,1 -1.5,1 -2.5,2 -1,1 -1.5,1.5 -2.5,2.5 -1,1 -2.5,3 -3.5,5 -1,2 -1.5,5 -1.5,5 0,0 -0.5,-3 -1.5,-5 -1,-2 -2.5,-4 -3.5,-5 -1,-1 -1.5,-1.5 -2.5,-2.5 -1,-1 -1.5,-1 -2.5,-2 -1,-1 -2,-1.5 -3,-2.5 -1,-1 -2,-3.637 -2,-5.5 0,-1.863 0.682,-4.182 2,-5.5 1.318,-1.318 3.637,-2 5.5,-2 1.863,0 4.182,0.682 5.5,2 1.318,1.318 2,5.5 2,5.5"
             inkscape:connector-curvature="0" />
          <path
             id="path386"
             d="m 330,954.86 c 0,0 0.682,4.182 2,5.5 1.318,1.318 3.637,2 5.5,2 1.863,0 4.182,-0.682 5.5,-2 1.318,-1.318 2,-3.637 2,-5.5 0,-1.863 -1,-4.5 -2,-5.5 -1,-1 -2,-1.5 -3,-2.5 -1,-1 -1.5,-1 -2.5,-2 -1,-1 -1.5,-1.5 -2.5,-2.5 -1,-1 -2.5,-3 -3.5,-5 -1,-2 -1.5,-5 -1.5,-5 0,0 -0.5,3 -1.5,5 -1,2 -2.5,4 -3.5,5 -1,1 -1.5,1.5 -2.5,2.5 -1,1 -1.5,1 -2.5,2 -1,1 -2,1.5 -3,2.5 -1,1 -2,3.637 -2,5.5 0,1.863 0.682,4.182 2,5.5 1.318,1.318 3.637,2 5.5,2 1.863,0 4.182,-0.682 5.5,-2 1.318,-1.318 2,-5.5 2,-5.5"
             inkscape:connector-curvature="0" />
          <path
             id="path388"
             d="m 100,582.36 c 0,0 1.82,-11.153 5.333,-14.667 3.514,-3.514 9.698,-5.333 14.667,-5.333 4.969,0 11.153,1.82 14.667,5.333 3.514,3.514 5.333,9.698 5.333,14.667 0,4.969 -2.667,12 -5.333,14.667 -2.667,2.667 -5.333,4 -8,6.667 -2.667,2.667 -4,2.667 -6.667,5.333 -2.667,2.667 -4,4 -6.667,6.667 -2.667,2.667 -6.667,8 -9.333,13.333 -2.667,5.333 -4,13.333 -4,13.333 0,0 -1.333,-8 -4,-13.333 -2.667,-5.333 -6.667,-10.667 -9.333,-13.333 -2.667,-2.667 -4,-4 -6.667,-6.667 -2.667,-2.667 -4,-2.667 -6.667,-5.333 -2.667,-2.667 -5.333,-4 -8,-6.667 C 62.666,594.36 60,587.329 60,582.36 c 0,-4.969 1.82,-11.153 5.333,-14.667 3.514,-3.514 9.698,-5.333 14.667,-5.333 4.969,0 11.153,1.82 14.667,5.333 3.514,3.514 5.333,14.667 5.333,14.667"
             inkscape:connector-curvature="0" />
          <path
             id="path390"
             d="m 100,982.36 c 0,0 1.82,11.153 5.333,14.667 3.514,3.514 9.698,5.333 14.667,5.333 4.969,0 11.153,-1.82 14.667,-5.333 3.514,-3.514 5.333,-9.698 5.333,-14.667 0,-4.969 -2.667,-12 -5.333,-14.667 -2.667,-2.667 -5.333,-4 -8,-6.667 -2.667,-2.667 -4,-2.667 -6.667,-5.333 -2.667,-2.667 -4,-4 -6.667,-6.667 -2.667,-2.667 -6.667,-8 -9.333,-13.333 -2.667,-5.333 -4,-13.333 -4,-13.333 0,0 -1.333,8 -4,13.333 -2.667,5.333 -6.667,10.667 -9.333,13.333 -2.667,2.667 -4,4 -6.667,6.667 -2.667,2.667 -4,2.667 -6.667,5.333 -2.667,2.667 -5.333,4 -8,6.667 C 62.666,970.36 60,977.391 60,982.36 c 0,4.969 1.82,11.153 5.333,14.667 3.514,3.514 9.698,5.333 14.667,5.333 4.969,0 11.153,-1.82 14.667,-5.333 C 98.181,993.513 100,982.36 100,982.36"
             inkscape:connector-curvature="0" />
          <path
             id="path392"
             d="m 260,982.36 c 0,0 1.82,11.153 5.333,14.667 3.514,3.514 9.698,5.333 14.667,5.333 4.969,0 11.153,-1.82 14.667,-5.333 3.514,-3.514 5.333,-9.698 5.333,-14.667 0,-4.969 -2.667,-12 -5.333,-14.667 -2.667,-2.667 -5.333,-4 -8,-6.667 -2.667,-2.667 -4,-2.667 -6.667,-5.333 -2.667,-2.667 -4,-4 -6.667,-6.667 -2.667,-2.667 -6.667,-8 -9.333,-13.333 -2.667,-5.333 -4,-13.333 -4,-13.333 0,0 -1.333,8 -4,13.333 -2.667,5.333 -6.667,10.667 -9.333,13.333 -2.667,2.667 -4,4 -6.667,6.667 -2.667,2.667 -4,2.667 -6.667,5.333 -2.667,2.667 -5.333,4 -8,6.667 -2.667,2.667 -5.333,9.698 -5.333,14.667 0,4.969 1.82,11.153 5.333,14.667 3.514,3.514 9.698,5.333 14.667,5.333 4.969,0 11.153,-1.82 14.667,-5.333 C 258.181,993.513 260,982.36 260,982.36"
             inkscape:connector-curvature="0" />
          <path
             id="path394"
             d="m 260,582.36 c 0,0 1.82,-11.153 5.333,-14.667 3.514,-3.514 9.698,-5.333 14.667,-5.333 4.969,0 11.153,1.82 14.667,5.333 3.514,3.514 5.333,9.698 5.333,14.667 0,4.969 -2.667,12 -5.333,14.667 -2.667,2.667 -5.333,4 -8,6.667 -2.667,2.667 -4,2.667 -6.667,5.333 -2.667,2.667 -4,4 -6.667,6.667 -2.667,2.667 -6.667,8 -9.333,13.333 -2.667,5.333 -4,13.333 -4,13.333 0,0 -1.333,-8 -4,-13.333 -2.667,-5.333 -6.667,-10.667 -9.333,-13.333 -2.667,-2.667 -4,-4 -6.667,-6.667 -2.667,-2.667 -4,-2.667 -6.667,-5.333 -2.667,-2.667 -5.333,-4 -8,-6.667 C 222.666,594.36 220,587.329 220,582.36 c 0,-4.969 1.82,-11.153 5.333,-14.667 3.514,-3.514 9.698,-5.333 14.667,-5.333 4.969,0 11.153,1.82 14.667,5.333 3.514,3.514 5.333,14.667 5.333,14.667"
             inkscape:connector-curvature="0" />
          <path
             id="path396"
             d="m 20,542.36 v 15 5 h 10 c 2.77,0 5,2.23 5,5 v 15 c 0,2.77 -2.23,5 -5,5 -2.77,0 -5,-2.23 -5,-5 v -5 h -5 v 5 c 0,5.54 4.46,10 10,10 5.54,0 10,-4.46 10,-10 v -15 c 0,-5.54 -4.46,-10 -10,-10 h -5 v -10 h 5 10 v -5 H 30 25 Z"
             inkscape:connector-curvature="0" />
          <path
             id="path398"
             d="m 340,1022.36 v -15 -5 h -10 c -2.77,0 -5,-2.23 -5,-5 v -15 c 0,-2.77 2.23,-5 5,-5 2.77,0 5,2.23 5,5 v 5 h 5 v -5 c 0,-5.54 -4.46,-10 -10,-10 -5.54,0 -10,4.46 -10,10 v 15 c 0,5.54 4.46,10 10,10 h 5 v 10 h -5 -10 v 5 h 10 5 z"
             inkscape:connector-curvature="0" />
          <path
             id="path400"
             d="m 180,762.36 c 0,0 1.82,-11.153 5.333,-14.667 3.514,-3.514 9.698,-5.333 14.667,-5.333 4.969,0 11.153,1.82 14.667,5.333 3.514,3.514 5.333,9.698 5.333,14.667 0,4.969 -2.667,12 -5.333,14.667 -2.667,2.667 -5.333,4 -8,6.667 -2.667,2.667 -4,2.667 -6.667,5.333 -2.667,2.667 -4,4 -6.667,6.667 -2.667,2.667 -6.667,8 -9.333,13.333 -2.667,5.333 -4,13.333 -4,13.333 0,0 -1.333,-8 -4,-13.333 -2.667,-5.333 -6.667,-10.667 -9.333,-13.333 -2.667,-2.667 -4,-4 -6.667,-6.667 -2.667,-2.667 -4,-2.667 -6.667,-5.333 -2.667,-2.667 -5.333,-4 -8,-6.667 C 142.666,774.36 140,767.329 140,762.36 c 0,-4.969 1.82,-11.153 5.333,-14.667 3.514,-3.514 9.698,-5.333 14.667,-5.333 4.969,0 11.153,1.82 14.667,5.333 3.514,3.514 5.333,14.667 5.333,14.667"
             inkscape:connector-curvature="0" />
        </g>
      </g>
    </g>
  </g>
</svg>
